<svg width="134" height="132" viewBox="0 0 134 132" fill="none" xmlns="http://www.w3.org/2000/svg">
<path d="M41.2699 128.873C48.1077 128.873 53.6508 123.33 53.6508 116.492C53.6508 109.654 48.1077 104.111 41.2699 104.111C34.4321 104.111 28.8889 109.654 28.8889 116.492C28.8889 123.33 34.4321 128.873 41.2699 128.873Z" stroke="#0C356A" stroke-width="4.82687" stroke-miterlimit="10"/>
<path d="M90.7936 128.873C97.6314 128.873 103.175 123.33 103.175 116.492C103.175 109.654 97.6314 104.111 90.7936 104.111C83.9557 104.111 78.4126 109.654 78.4126 116.492C78.4126 123.33 83.9557 128.873 90.7936 128.873Z" stroke="#0C356A" stroke-width="4.82687" stroke-miterlimit="10"/>
<path d="M53.6506 116.492H78.4125" stroke="#0C356A" stroke-width="4.82687" stroke-miterlimit="10"/>
<path d="M28.8889 116.492L20.6349 3H0" stroke="#0C356A" stroke-width="4.82687" stroke-miterlimit="10"/>
<path d="M26.8255 87.6031L115.556 81.4126L130 19.5078H22.6985" stroke="#0C356A" stroke-width="4.82687" stroke-miterlimit="10"/>
<path d="M55.7141 48.3966L70.1586 62.841L96.984 36.0156" stroke="#0C356A" stroke-width="4.82687" stroke-miterlimit="10" stroke-linejoin="bevel"/>
</svg>
