<svg width="708" height="583" viewBox="0 0 708 583" fill="none" xmlns="http://www.w3.org/2000/svg">
<g clip-path="url(#clip0_952_869)">
<path d="M625.827 78.7602C628.358 62.9535 625.344 46.7107 617.312 32.9478C608.264 17.4227 593.898 6.45256 576.856 2.05489C572.534 0.950738 568.119 0.291305 563.725 0.0918738V0.0263672H541.139V3.15322C524.909 8.4134 511.509 19.7184 503.296 35.0753C497.898 31.4441 491.627 29.5291 485.107 29.5291C484.089 29.5291 483.029 29.5808 482.02 29.679H466.76L461.773 39.3099L461.662 39.4191C461.516 39.564 461.369 39.7088 461.228 39.8573C456.089 45.2441 452.787 52.3116 451.89 59.8142C425.622 61.7401 404.64 84.3355 404.01 111.515C403.691 125.669 408.742 139.13 418.233 149.418C427.763 159.682 440.583 165.515 454.346 165.842L616.63 165.863C640.208 165.863 659.39 146.094 659.39 121.795C659.39 100.75 645.623 83.1506 625.826 78.7595L625.827 78.7602Z" fill="#0C356A"/>
<path d="M599.906 165.162C623.101 165.162 641.981 145.713 641.981 121.797C641.981 100.81 627.834 83.3275 608.316 79.3097C611.017 63.4389 608.143 47.2639 599.998 33.3074C591.041 17.9388 576.834 7.08945 559.965 2.7369C554.766 1.40784 549.454 0.728027 544.153 0.728027C520.013 0.728027 498.088 14.4437 486.815 36.0899C481.412 32.2709 475.045 30.2315 468.383 30.2315C459.517 30.2315 451.2 33.8096 444.995 40.3486C439.805 45.7893 436.556 52.9346 435.784 60.4781C409.786 62.0786 388.601 84.3632 387.972 111.533C387.657 125.521 392.653 138.798 402.007 148.935C411.39 159.041 424.024 164.817 437.622 165.141L599.906 165.162Z" fill="white"/>
<path d="M599.906 165.89L437.622 165.869C423.852 165.54 411.026 159.705 401.492 149.437C391.995 139.143 386.943 125.677 387.261 111.516C387.891 84.3288 408.872 61.7276 435.144 59.7923C436.045 52.291 439.348 45.2265 444.486 39.8404C450.811 33.1755 459.298 29.5042 468.383 29.5042C474.898 29.5042 481.166 31.4155 486.563 35.0388C498.15 13.4034 520.143 0 544.154 0C549.487 0 554.865 0.682724 560.138 2.02998C577.186 6.42911 591.559 17.4037 600.609 32.9338C608.641 46.6953 611.656 62.9344 609.131 78.7404C628.928 83.1432 642.693 100.747 642.693 121.796C642.693 146.11 623.498 165.89 599.906 165.89ZM468.383 30.9592C459.686 30.9592 451.562 34.4732 445.506 40.855C440.45 46.156 437.25 53.1513 436.492 60.5536L436.429 61.1672L435.827 61.2043C410.008 62.7946 389.3 84.9082 388.684 111.55C388.373 125.325 393.289 138.425 402.524 148.436C411.794 158.42 424.266 164.095 437.639 164.413L599.906 164.434C622.714 164.434 641.269 145.307 641.269 121.796C641.269 101.211 627.66 84.0333 608.175 80.0229L607.496 79.8831L607.614 79.1844C610.283 63.5043 607.362 47.3438 599.388 33.6799C590.532 18.4838 576.469 7.74506 559.792 3.44201C554.632 2.12387 549.371 1.4557 544.154 1.4557C520.409 1.4557 498.679 14.8584 487.445 36.4333L487.069 37.1539L486.412 36.6895C481.109 32.9411 474.874 30.9592 468.383 30.9592Z" fill="#0C356A"/>
<path d="M500.411 182.876H428.948V582.376H500.411V182.876Z" fill="#0C356A"/>
<path d="M501.121 583H428.236V182.252H501.121V583ZM429.658 581.752H499.699V183.5H429.658V581.752Z" fill="#0C356A"/>
<path d="M207.828 661.065H431.052L431.052 183L207.828 183L207.828 661.065Z" fill="white"/>
<path d="M431.763 661.812H207.116V182.252H431.763V661.812ZM208.539 660.319H430.34V183.746H208.539V660.319Z" fill="#0C356A"/>
<path d="M412.724 507.118H222.621V551.895H412.724V507.118Z" fill="#0074BE"/>
<g opacity="0.5">
<path d="M412.724 507.118H222.621V551.895H412.724V507.118Z" fill="white"/>
</g>
<path d="M412.725 552.642H222.622C222.228 552.642 221.91 552.308 221.91 551.896V507.118C221.91 506.705 222.228 506.372 222.622 506.372H412.725C413.118 506.372 413.436 506.705 413.436 507.118V551.896C413.436 552.308 413.118 552.642 412.725 552.642ZM223.333 551.149H412.013V507.865H223.333V551.149Z" fill="#0C356A"/>
<path d="M244.168 538.693C249.001 538.693 252.918 534.58 252.918 529.507C252.918 524.434 249.001 520.321 244.168 520.321C239.335 520.321 235.417 524.434 235.417 529.507C235.417 534.58 239.335 538.693 244.168 538.693Z" fill="white"/>
<path d="M244.169 539.44C238.951 539.44 234.707 534.984 234.707 529.507C234.707 524.03 238.951 519.574 244.169 519.574C249.386 519.574 253.631 524.03 253.631 529.507C253.631 534.984 249.386 539.44 244.169 539.44ZM244.169 521.068C239.736 521.068 236.129 524.854 236.129 529.508C236.129 534.162 239.735 537.947 244.169 537.947C248.602 537.947 252.208 534.162 252.208 529.508C252.208 524.854 248.602 521.068 244.169 521.068Z" fill="#0C356A"/>
<path d="M373.018 529.331H264.209C263.816 529.331 263.498 528.997 263.498 528.585C263.498 528.172 263.816 527.838 264.209 527.838H373.018C373.411 527.838 373.729 528.172 373.729 528.585C373.729 528.997 373.411 529.331 373.018 529.331Z" fill="#0C356A"/>
<path d="M389.013 529.331H386.755C386.361 529.331 386.043 528.997 386.043 528.585C386.043 528.172 386.361 527.838 386.755 527.838H389.013C389.406 527.838 389.724 528.172 389.724 528.585C389.724 528.997 389.406 529.331 389.013 529.331Z" fill="#0C356A"/>
<path d="M381.089 529.331H378.83C378.437 529.331 378.119 528.997 378.119 528.585C378.119 528.172 378.437 527.838 378.83 527.838H381.089C381.482 527.838 381.8 528.172 381.8 528.585C381.8 528.997 381.482 529.331 381.089 529.331Z" fill="#0C356A"/>
<path d="M397.482 529.331H395.224C394.831 529.331 394.513 528.997 394.513 528.585C394.513 528.172 394.831 527.838 395.224 527.838H397.482C397.876 527.838 398.193 528.172 398.193 528.585C398.193 528.997 397.876 529.331 397.482 529.331Z" fill="#0C356A"/>
<path d="M412.724 216.136H222.621V260.913H412.724V216.136Z" fill="#0074BE"/>
<g opacity="0.5">
<path d="M412.724 216.136H222.621V260.913H412.724V216.136Z" fill="white"/>
</g>
<path d="M412.725 261.66H222.622C222.228 261.66 221.91 261.326 221.91 260.913V216.136C221.91 215.723 222.228 215.389 222.622 215.389H412.725C413.118 215.389 413.436 215.723 413.436 216.136V260.913C413.436 261.326 413.118 261.66 412.725 261.66ZM223.333 260.166H412.013V216.882H223.333V260.166Z" fill="#0C356A"/>
<path d="M244.168 247.711C249.001 247.711 252.918 243.598 252.918 238.525C252.918 233.451 249.001 229.338 244.168 229.338C239.335 229.338 235.417 233.451 235.417 238.525C235.417 243.598 239.335 247.711 244.168 247.711Z" fill="white"/>
<path d="M244.169 248.457C238.951 248.457 234.707 244.001 234.707 238.525C234.707 233.048 238.951 228.592 244.169 228.592C249.386 228.592 253.631 233.048 253.631 238.525C253.631 244.001 249.386 248.457 244.169 248.457ZM244.169 230.086C239.736 230.086 236.129 233.871 236.129 238.525C236.129 243.179 239.735 246.965 244.169 246.965C248.602 246.965 252.208 243.179 252.208 238.525C252.208 233.871 248.602 230.086 244.169 230.086Z" fill="#0C356A"/>
<path d="M373.018 238.349H264.209C263.816 238.349 263.498 238.015 263.498 237.602C263.498 237.189 263.816 236.855 264.209 236.855H373.018C373.411 236.855 373.729 237.189 373.729 237.602C373.729 238.015 373.411 238.349 373.018 238.349Z" fill="#0C356A"/>
<path d="M389.013 238.349H386.755C386.361 238.349 386.043 238.015 386.043 237.602C386.043 237.189 386.361 236.855 386.755 236.855H389.013C389.406 236.855 389.724 237.189 389.724 237.602C389.724 238.015 389.406 238.349 389.013 238.349Z" fill="#0C356A"/>
<path d="M381.089 238.349H378.83C378.437 238.349 378.119 238.015 378.119 237.602C378.119 237.189 378.437 236.855 378.83 236.855H381.089C381.482 236.855 381.8 237.189 381.8 237.602C381.8 238.015 381.482 238.349 381.089 238.349Z" fill="#0C356A"/>
<path d="M397.482 238.349H395.224C394.831 238.349 394.513 238.015 394.513 237.602C394.513 237.189 394.831 236.855 395.224 236.855H397.482C397.876 236.855 398.193 237.189 398.193 237.602C398.193 238.015 397.876 238.349 397.482 238.349Z" fill="#0C356A"/>
<path d="M413.781 285.516H223.678V330.293H413.781V285.516Z" fill="#0074BE"/>
<g opacity="0.5">
<path d="M413.781 285.516H223.678V330.293H413.781V285.516Z" fill="white"/>
</g>
<path d="M413.781 331.04H223.679C223.285 331.04 222.967 330.706 222.967 330.293V285.516C222.967 285.103 223.285 284.77 223.679 284.77H413.781C414.175 284.77 414.493 285.103 414.493 285.516V330.293C414.493 330.706 414.175 331.04 413.781 331.04ZM224.39 329.547H413.07V286.263H224.39V329.547Z" fill="#0C356A"/>
<path d="M245.225 317.091C250.057 317.091 253.975 312.978 253.975 307.905C253.975 302.832 250.057 298.719 245.225 298.719C240.392 298.719 236.474 302.832 236.474 307.905C236.474 312.978 240.392 317.091 245.225 317.091Z" fill="white"/>
<path d="M245.225 317.838C240.008 317.838 235.763 313.382 235.763 307.905C235.763 302.428 240.008 297.972 245.225 297.972C250.443 297.972 254.687 302.428 254.687 307.905C254.687 313.382 250.443 317.838 245.225 317.838ZM245.225 299.466C240.793 299.466 237.186 303.252 237.186 307.906C237.186 312.56 240.792 316.345 245.225 316.345C249.659 316.345 253.265 312.56 253.265 307.906C253.265 303.252 249.659 299.466 245.225 299.466Z" fill="#0C356A"/>
<path d="M374.075 307.729H265.266C264.873 307.729 264.555 307.395 264.555 306.983C264.555 306.57 264.873 306.236 265.266 306.236H374.075C374.468 306.236 374.786 306.57 374.786 306.983C374.786 307.395 374.468 307.729 374.075 307.729Z" fill="#0C356A"/>
<path d="M390.07 307.729H387.812C387.418 307.729 387.1 307.395 387.1 306.983C387.1 306.57 387.418 306.236 387.812 306.236H390.07C390.463 306.236 390.781 306.57 390.781 306.983C390.781 307.395 390.463 307.729 390.07 307.729Z" fill="#0C356A"/>
<path d="M382.146 307.729H379.887C379.494 307.729 379.176 307.395 379.176 306.983C379.176 306.57 379.494 306.236 379.887 306.236H382.146C382.539 306.236 382.857 306.57 382.857 306.983C382.857 307.395 382.539 307.729 382.146 307.729Z" fill="#0C356A"/>
<path d="M398.539 307.729H396.281C395.888 307.729 395.57 307.395 395.57 306.983C395.57 306.57 395.888 306.236 396.281 306.236H398.539C398.932 306.236 399.25 306.57 399.25 306.983C399.25 307.395 398.932 307.729 398.539 307.729Z" fill="#0C356A"/>
<path d="M413.781 356.967H223.678V401.745H413.781V356.967Z" fill="#0074BE"/>
<g opacity="0.5">
<path d="M413.781 356.967H223.678V401.745H413.781V356.967Z" fill="white"/>
</g>
<path d="M413.781 402.491H223.679C223.285 402.491 222.967 402.158 222.967 401.745V356.967C222.967 356.554 223.285 356.221 223.679 356.221H413.781C414.175 356.221 414.493 356.554 414.493 356.967V401.745C414.493 402.158 414.175 402.491 413.781 402.491ZM224.39 400.998H413.07V357.714H224.39V400.998Z" fill="#0C356A"/>
<path d="M245.225 388.542C250.057 388.542 253.975 384.429 253.975 379.356C253.975 374.283 250.057 370.17 245.225 370.17C240.392 370.17 236.474 374.283 236.474 379.356C236.474 384.429 240.392 388.542 245.225 388.542Z" fill="white"/>
<path d="M245.225 389.288C240.008 389.288 235.763 384.832 235.763 379.355C235.763 373.878 240.008 369.422 245.225 369.422C250.443 369.422 254.687 373.878 254.687 379.355C254.687 384.832 250.443 389.288 245.225 389.288ZM245.225 370.916C240.793 370.916 237.186 374.702 237.186 379.356C237.186 384.01 240.792 387.795 245.225 387.795C249.659 387.795 253.265 384.01 253.265 379.356C253.265 374.702 249.659 370.916 245.225 370.916Z" fill="#0C356A"/>
<path d="M374.075 379.18H265.266C264.873 379.18 264.555 378.847 264.555 378.434C264.555 378.021 264.873 377.687 265.266 377.687H374.075C374.468 377.687 374.786 378.021 374.786 378.434C374.786 378.847 374.468 379.18 374.075 379.18Z" fill="#0C356A"/>
<path d="M390.07 379.18H387.812C387.418 379.18 387.1 378.847 387.1 378.434C387.1 378.021 387.418 377.687 387.812 377.687H390.07C390.463 377.687 390.781 378.021 390.781 378.434C390.781 378.847 390.463 379.18 390.07 379.18Z" fill="#0C356A"/>
<path d="M382.146 379.18H379.887C379.494 379.18 379.176 378.847 379.176 378.434C379.176 378.021 379.494 377.687 379.887 377.687H382.146C382.539 377.687 382.857 378.021 382.857 378.434C382.857 378.847 382.539 379.18 382.146 379.18Z" fill="#0C356A"/>
<path d="M398.539 379.18H396.281C395.888 379.18 395.57 378.847 395.57 378.434C395.57 378.021 395.888 377.687 396.281 377.687H398.539C398.932 377.687 399.25 378.021 399.25 378.434C399.25 378.847 398.932 379.18 398.539 379.18Z" fill="#0C356A"/>
<path d="M412.724 432.56H222.621V477.337H412.724V432.56Z" fill="#0074BE"/>
<g opacity="0.5">
<path d="M412.724 432.56H222.621V477.337H412.724V432.56Z" fill="white"/>
</g>
<path d="M412.725 478.084H222.622C222.228 478.084 221.91 477.75 221.91 477.337V432.56C221.91 432.147 222.228 431.813 222.622 431.813H412.725C413.118 431.813 413.436 432.147 413.436 432.56V477.337C413.436 477.75 413.118 478.084 412.725 478.084ZM223.333 476.591H412.013V433.307H223.333V476.591Z" fill="#0C356A"/>
<path d="M244.168 464.135C249.001 464.135 252.918 460.022 252.918 454.949C252.918 449.875 249.001 445.763 244.168 445.763C239.335 445.763 235.417 449.875 235.417 454.949C235.417 460.022 239.335 464.135 244.168 464.135Z" fill="white"/>
<path d="M244.169 464.881C238.951 464.881 234.707 460.425 234.707 454.948C234.707 449.471 238.951 445.015 244.169 445.015C249.386 445.015 253.631 449.471 253.631 454.948C253.631 460.425 249.386 464.881 244.169 464.881ZM244.169 446.509C239.736 446.509 236.129 450.295 236.129 454.949C236.129 459.603 239.735 463.388 244.169 463.388C248.602 463.388 252.208 459.603 252.208 454.949C252.208 450.295 248.602 446.509 244.169 446.509Z" fill="#0C356A"/>
<path d="M373.018 454.773H264.209C263.816 454.773 263.498 454.439 263.498 454.026C263.498 453.614 263.816 453.28 264.209 453.28H373.018C373.411 453.28 373.729 453.614 373.729 454.026C373.729 454.439 373.411 454.773 373.018 454.773Z" fill="#0C356A"/>
<path d="M389.013 454.773H386.755C386.361 454.773 386.043 454.439 386.043 454.026C386.043 453.614 386.361 453.28 386.755 453.28H389.013C389.406 453.28 389.724 453.614 389.724 454.026C389.724 454.439 389.406 454.773 389.013 454.773Z" fill="#0C356A"/>
<path d="M381.089 454.773H378.83C378.437 454.773 378.119 454.439 378.119 454.026C378.119 453.614 378.437 453.28 378.83 453.28H381.089C381.482 453.28 381.8 453.614 381.8 454.026C381.8 454.439 381.482 454.773 381.089 454.773Z" fill="#0C356A"/>
<path d="M397.482 454.773H395.224C394.831 454.773 394.513 454.439 394.513 454.026C394.513 453.614 394.831 453.28 395.224 453.28H397.482C397.876 453.28 398.193 453.614 398.193 454.026C398.193 454.439 397.876 454.773 397.482 454.773Z" fill="#0C356A"/>
<path d="M529.666 460.123H490.632V458.668H529.666C549.647 458.668 565.902 442.033 565.902 421.587V165.136H567.325V421.587C567.325 442.835 550.431 460.123 529.666 460.123Z" fill="#0C356A"/>
<path d="M566.614 215.147C569.137 215.147 571.183 213.053 571.183 210.47C571.183 207.888 569.137 205.794 566.614 205.794C564.09 205.794 562.044 207.888 562.044 210.47C562.044 213.053 564.09 215.147 566.614 215.147Z" fill="white"/>
<path d="M566.614 215.875C563.702 215.875 561.333 213.45 561.333 210.47C561.333 207.491 563.702 205.065 566.614 205.065C569.526 205.065 571.895 207.49 571.895 210.47C571.895 213.451 569.526 215.875 566.614 215.875ZM566.614 206.521C564.486 206.521 562.755 208.293 562.755 210.47C562.755 212.648 564.486 214.419 566.614 214.419C568.741 214.419 570.473 212.647 570.473 210.47C570.473 208.293 568.742 206.521 566.614 206.521Z" fill="#0C356A"/>
<path d="M566.614 280.965C569.137 280.965 571.183 278.871 571.183 276.289C571.183 273.706 569.137 271.612 566.614 271.612C564.09 271.612 562.044 273.706 562.044 276.289C562.044 278.871 564.09 280.965 566.614 280.965Z" fill="#0C356A"/>
<path d="M566.614 281.694C563.702 281.694 561.333 279.269 561.333 276.289C561.333 273.308 563.702 270.884 566.614 270.884C569.526 270.884 571.895 273.309 571.895 276.289C571.895 279.268 569.526 281.694 566.614 281.694ZM566.614 272.34C564.486 272.34 562.755 274.112 562.755 276.289C562.755 278.466 564.486 280.238 566.614 280.238C568.741 280.238 570.473 278.466 570.473 276.289C570.473 274.111 568.742 272.34 566.614 272.34Z" fill="white"/>
<path d="M566.614 346.783C569.137 346.783 571.183 344.689 571.183 342.107C571.183 339.524 569.137 337.43 566.614 337.43C564.09 337.43 562.044 339.524 562.044 342.107C562.044 344.689 564.09 346.783 566.614 346.783Z" fill="white"/>
<path d="M566.614 347.512C563.702 347.512 561.333 345.087 561.333 342.107C561.333 339.126 563.702 336.702 566.614 336.702C569.526 336.702 571.895 339.126 571.895 342.107C571.895 345.087 569.526 347.512 566.614 347.512ZM566.614 338.157C564.486 338.157 562.755 339.929 562.755 342.107C562.755 344.284 564.486 346.056 566.614 346.056C568.741 346.056 570.473 344.284 570.473 342.107C570.473 339.929 568.742 338.157 566.614 338.157Z" fill="#0C356A"/>
<path d="M566.614 412.602C569.137 412.602 571.183 410.508 571.183 407.926C571.183 405.343 569.137 403.249 566.614 403.249C564.09 403.249 562.044 405.343 562.044 407.926C562.044 410.508 564.09 412.602 566.614 412.602Z" fill="white"/>
<path d="M566.614 413.33C563.702 413.33 561.333 410.905 561.333 407.925C561.333 404.944 563.702 402.521 566.614 402.521C569.526 402.521 571.895 404.945 571.895 407.925C571.895 410.905 569.526 413.33 566.614 413.33ZM566.614 403.976C564.486 403.976 562.755 405.748 562.755 407.925C562.755 410.102 564.486 411.874 566.614 411.874C568.741 411.874 570.473 410.103 570.473 407.925C570.473 405.747 568.742 403.976 566.614 403.976Z" fill="#0C356A"/>
<path d="M531.694 464.243C534.218 464.243 536.264 462.149 536.264 459.567C536.264 456.984 534.218 454.89 531.694 454.89C529.17 454.89 527.124 456.984 527.124 459.567C527.124 462.149 529.17 464.243 531.694 464.243Z" fill="#0C356A"/>
<path d="M531.695 464.971C528.782 464.971 526.413 462.546 526.413 459.566C526.413 456.585 528.782 454.162 531.695 454.162C534.607 454.162 536.976 456.586 536.976 459.566C536.976 462.546 534.607 464.971 531.695 464.971ZM531.695 455.617C529.567 455.617 527.835 457.389 527.835 459.566C527.835 461.743 529.567 463.515 531.695 463.515C533.823 463.515 535.553 461.744 535.553 459.566C535.553 457.388 533.822 455.617 531.695 455.617Z" fill="white"/>
<line x1="205.003" y1="582.5" x2="500.884" y2="582.5" stroke="#0C356A"/>
</g>
<defs>
<clipPath id="clip0_952_869">
<rect width="708" height="583" fill="white"/>
</clipPath>
</defs>
</svg>
