<svg width="312" height="390" viewBox="0 0 312 390" fill="none" xmlns="http://www.w3.org/2000/svg">
<path d="M119.336 282.246C83.9105 261.14 37.1 271.218 14.7773 304.752C14.7533 304.788 14.7302 304.824 14.7061 304.859C11.951 309.015 5.33894 308.048 4.05354 303.299C-0.933596 284.871 2.32435 261.863 13.888 244.491C36.1394 211.062 94.365 186.142 129.654 207.209" fill="#0074BE"/>
<path d="M116.732 280.694C152.157 301.8 162.777 346.093 140.454 379.628C140.43 379.663 140.407 379.698 140.383 379.735C137.613 383.88 141.39 389.105 146.474 388.15C166.195 384.442 186.719 371.722 198.283 354.35C220.535 320.921 219.133 260.476 183.803 239.471" fill="#0074BE"/>
<path d="M303.894 92.3863C298.078 120.27 286.562 152.136 264.993 184.538C228.171 239.857 182.185 281.23 145.641 315.36L73.6183 272.45C91.1186 226.974 109.933 169.414 146.755 114.095C168.323 81.693 193.724 58.0993 217.791 41.0895" fill="#0C356A"/>
<path d="M216.077 174.279C239.384 174.143 258.173 156.152 258.044 134.095C257.916 112.039 238.917 94.2688 215.61 94.4049C192.303 94.541 173.513 112.532 173.642 134.588C173.771 156.645 192.77 174.415 216.077 174.279Z" fill="#0074BE"/>
<path d="M216.028 165.975C234.489 165.867 249.371 151.617 249.269 134.147C249.167 116.677 234.119 102.602 215.659 102.71C197.198 102.817 182.316 117.067 182.418 134.537C182.52 152.007 197.568 166.082 216.028 165.975Z" fill="white"/>
<path d="M146.772 314.592L74.1416 271.321L68.1717 280.29L140.802 323.56L146.772 314.592Z" fill="#0C356A"/>
<path d="M303.895 92.3865L217.792 41.0888C263.965 8.44915 305.256 0.0214592 305.256 0.0214592C305.256 0.0214592 315.059 38.8899 303.895 92.3865Z" fill="#0074BE"/>
<path d="M135.725 275.083C113.861 307.928 81.0689 350.088 77.4634 347.94C73.8579 345.791 99.8778 299.597 121.742 266.751C143.606 233.905 153.033 226.846 156.639 228.994C160.244 231.142 157.589 242.236 135.725 275.082L135.725 275.083Z" fill="#0074BE"/>
</svg>
