<svg width="443" height="410" viewBox="0 0 443 410" fill="none" xmlns="http://www.w3.org/2000/svg">
<path d="M221.5 408.594C343.831 408.594 443 317.575 443 205.297C443 93.0191 343.831 2 221.5 2C99.1689 2 0 93.0191 0 205.297C0 317.575 99.1689 408.594 221.5 408.594Z" fill="#367CFF"/>
<path opacity="0.86" d="M221.5 408.594C343.831 408.594 443 317.575 443 205.297C443 93.0191 343.831 2 221.5 2C99.1689 2 0 93.0191 0 205.297C0 317.575 99.1689 408.594 221.5 408.594Z" fill="white"/>
<path opacity="0.1" d="M104.893 208.423L151.065 268.74L73.8655 280.528L48.009 248.505L104.893 208.423Z" fill="#367CFF"/>
<path opacity="0.1" d="M402.237 115.669L371.209 91.9585L336.734 136.736L347.519 148.188L402.237 115.669Z" fill="#367CFF"/>
<path opacity="0.1" d="M85.0698 136.735L113.602 117.187L137.666 153.076L109.899 166.462L85.0698 136.735Z" fill="#367CFF"/>
<path opacity="0.1" d="M253.457 353.538L286.291 329.015L306.569 353.538L270.003 376.478L253.457 353.538Z" fill="#367CFF"/>
<path opacity="0.1" d="M122.003 176.345L151.799 156.364L175.565 185.047L162.638 197.166L181.893 219.964L199.698 208.424L220.444 232.509L181.893 258.613L122.003 176.345Z" fill="#367CFF"/>
<path d="M442.673 216.4L331.709 285.355L382.823 344.6C381.303 346.089 379.754 347.551 378.183 348.993L326.313 288.872L236.184 350.536L276.102 402.368C273.804 402.908 271.491 403.406 269.164 403.871L228.931 351.621L172.479 279.371L73.6509 297.646L81.5581 362.881C79.0619 361.014 76.617 359.101 74.2163 357.133L66.8671 296.494L1.23115 226.804C0.834693 223.422 0.54102 220.012 0.335449 216.582L71.2722 291.905L168.25 273.967L32.1402 99.7709C33.3737 97.9043 34.6438 96.058 35.9433 94.2318L175.357 272.653L176.121 272.512L277.82 206.832L205.782 120.997L216.185 2.06309C217.955 2.02265 219.724 2.00244 221.501 2.00244C221.941 2.00244 222.382 2.00244 222.822 2.00918L212.573 119.151L283.231 203.334L420.002 115.007C421 116.839 421.962 118.692 422.894 120.559L179.388 277.815L232.352 345.597L327.509 280.49L327.597 280.591L442.96 208.9C442.915 211.414 442.82 213.907 442.673 216.4Z" fill="white"/>
<path d="M91.9985 38.7188C72.0817 38.7188 56 54.1106 56 73.0956C56 79.0652 58.3708 85.7885 60.3921 89.5755C67.0298 102.012 91.5984 136.786 91.5984 136.786C91.78 137.077 92.22 137.077 92.4016 136.786C92.4016 136.786 116.97 102.012 123.608 89.5755C125.629 85.7885 128 79.0652 128 73.0956C128 54.11 111.918 38.7188 92.0015 38.7188H91.9985Z" fill="#367CFF"/>
<path opacity="0.12" d="M91.9985 38.7188C72.0817 38.7188 56 54.1106 56 73.0956C56 79.0652 58.3708 85.7885 60.3921 89.5755C67.0298 102.012 91.5984 136.786 91.5984 136.786C91.78 137.077 92.22 137.077 92.4016 136.786C92.4016 136.786 116.97 102.012 123.608 89.5755C125.629 85.7885 128 79.0652 128 73.0956C128 54.11 111.918 38.7188 92.0015 38.7188H91.9985Z" fill="white"/>
<path d="M91.3832 52.0023C91.5891 51.9971 91.793 52.0023 92.0001 52.0023C105.369 52.0023 116.184 62.932 115.998 76.343C115.818 89.2688 105.268 99.8178 92.3417 99.9976C78.9302 100.184 68 89.369 68 76.0014C68 62.9543 78.4146 52.3312 91.383 52.0025L91.3832 52.0023Z" fill="white"/>
<path d="M221.998 112.18C198.209 112.18 179 130.059 179 152.112C179 159.047 181.832 166.857 184.246 171.256C192.174 185.702 221.52 226.096 221.52 226.096C221.737 226.434 222.263 226.434 222.48 226.096C222.48 226.096 251.826 185.702 259.754 171.256C262.168 166.857 265 159.047 265 152.112C265 130.058 245.791 112.18 222.002 112.18H221.998Z" fill="#367CFF"/>
<path opacity="0.12" d="M221.998 112.18C198.209 112.18 179 130.059 179 152.112C179 159.047 181.832 166.857 184.246 171.256C192.174 185.702 221.52 226.096 221.52 226.096C221.737 226.434 222.263 226.434 222.48 226.096C222.48 226.096 251.826 185.702 259.754 171.256C262.168 166.857 265 159.047 265 152.112C265 130.058 245.791 112.18 222.002 112.18H221.998Z" fill="white"/>
<path d="M221.255 127.003C221.504 126.997 221.75 127.003 222 127.003C238.154 127.003 251.222 140.21 250.997 156.414C250.78 172.033 238.032 184.78 222.413 184.997C206.207 185.222 193 172.154 193 156.002C193 140.236 205.584 127.4 221.255 127.003L221.255 127.003Z" fill="white"/>
<path d="M319.999 0C300.635 0 285 16.1692 285 36.113C285 42.3842 287.305 49.447 289.27 53.4253C295.723 66.4898 319.61 103.02 319.61 103.02C319.786 103.325 320.214 103.325 320.39 103.02C320.39 103.02 344.277 66.4898 350.73 53.4253C352.695 49.447 355 42.3842 355 36.113C355 16.1686 339.365 0 320.001 0H319.999Z" fill="#367CFF"/>
<path opacity="0.12" d="M319.999 0C300.635 0 285 16.1692 285 36.113C285 42.3842 287.305 49.447 289.27 53.4253C295.723 66.4898 319.61 103.02 319.61 103.02C319.786 103.325 320.214 103.325 320.39 103.02C320.39 103.02 344.277 66.4898 350.73 53.4253C352.695 49.447 355 42.3842 355 36.113C355 16.1686 339.365 0 320.001 0H319.999Z" fill="white"/>
<path d="M319.358 14.0024C319.572 13.997 319.784 14.0024 320 14.0024C333.926 14.0024 345.192 25.3876 344.998 39.3573C344.81 52.8216 333.821 63.8102 320.356 63.9975C306.386 64.1918 295 52.9261 295 39.0014C295 25.4107 305.849 14.345 319.357 14.0026L319.358 14.0024Z" fill="white"/>
<path d="M100.498 243.227C73.6656 243.227 52 265.615 52 293.229C52 301.912 55.1941 311.692 57.9171 317.2C66.8595 335.289 99.9589 385.87 99.9589 385.87C100.204 386.293 100.796 386.293 101.041 385.87C101.041 385.87 134.14 335.289 143.083 317.2C145.806 311.692 149 301.912 149 293.229C149 265.614 127.334 243.227 100.502 243.227H100.498Z" fill="#367CFF"/>
<path opacity="0.12" d="M100.498 243.227C73.6656 243.227 52 265.615 52 293.229C52 301.912 55.1941 311.692 57.9171 317.2C66.8595 335.289 99.9589 385.87 99.9589 385.87C100.204 386.293 100.796 386.293 101.041 385.87C101.041 385.87 134.14 335.289 143.083 317.2C145.806 311.692 149 301.912 149 293.229C149 265.614 127.334 243.227 100.502 243.227H100.498Z" fill="white"/>
<path d="M101.126 261.003C101.418 260.996 101.707 261.003 102 261.003C120.939 261.003 136.261 276.487 135.997 295.486C135.742 313.797 120.797 328.742 102.484 328.997C83.4844 329.261 68 313.939 68 295.002C68 276.519 82.754 261.469 101.126 261.003L101.126 261.003Z" fill="white"/>
<path d="M369.999 226.352C351.188 226.352 336 240.811 336 258.645C336 264.253 338.239 270.569 340.148 274.126C346.417 285.809 369.621 318.475 369.621 318.475C369.792 318.748 370.208 318.748 370.379 318.475C370.379 318.475 393.583 285.809 399.852 274.126C401.761 270.569 404 264.253 404 258.645C404 240.81 388.812 226.352 370.001 226.352H369.999Z" fill="#367CFF"/>
<path opacity="0.12" d="M369.999 226.352C351.188 226.352 336 240.811 336 258.645C336 264.253 338.239 270.569 340.148 274.126C346.417 285.809 369.621 318.475 369.621 318.475C369.792 318.748 370.208 318.748 370.379 318.475C370.379 318.475 393.583 285.809 399.852 274.126C401.761 270.569 404 264.253 404 258.645C404 240.81 388.812 226.352 370.001 226.352H369.999Z" fill="white"/>
<path d="M369.383 237.002C369.589 236.997 369.793 237.002 370 237.002C383.369 237.002 394.184 247.932 393.998 261.343C393.818 274.269 383.268 284.818 370.342 284.998C356.93 285.184 346 274.369 346 261.001C346 247.954 356.415 237.331 369.383 237.002L369.383 237.002Z" fill="white"/>
<path d="M246.999 316.695C228.188 316.695 213 331.154 213 348.989C213 354.597 215.239 360.912 217.148 364.47C223.417 376.153 246.621 408.819 246.621 408.819C246.792 409.092 247.208 409.092 247.379 408.819C247.379 408.819 270.583 376.153 276.852 364.47C278.761 360.912 281 354.597 281 348.989C281 331.154 265.812 316.695 247.001 316.695H246.999Z" fill="#367CFF"/>
<path opacity="0.12" d="M246.999 316.695C228.188 316.695 213 331.154 213 348.989C213 354.597 215.239 360.912 217.148 364.47C223.417 376.153 246.621 408.819 246.621 408.819C246.792 409.092 247.208 409.092 247.379 408.819C247.379 408.819 270.583 376.153 276.852 364.47C278.761 360.912 281 354.597 281 348.989C281 331.154 265.812 316.695 247.001 316.695H246.999Z" fill="white"/>
<path d="M246.383 328.002C246.589 327.997 246.793 328.002 247 328.002C260.369 328.002 271.184 338.932 270.998 352.343C270.818 365.269 260.268 375.818 247.342 375.998C233.93 376.184 223 365.369 223 352.001C223 338.954 233.415 328.331 246.383 328.002L246.383 328.002Z" fill="white"/>
</svg>
