<svg width="146" height="27" viewBox="0 0 146 27" fill="none" xmlns="http://www.w3.org/2000/svg">
<path d="M16.8102 20.6053H7.46468L5.68667 25.8579H0L9.65412 0.361749H14.5914L24.2896 25.8579H18.6176L16.8102 20.6053ZM8.90471 16.3511H15.3702L12.1228 6.80089L8.90471 16.3511Z" fill="#333333"/>
<path d="M46.314 0.361749V17.1469C46.314 19.9445 45.4275 22.1536 43.6544 23.7742C41.8813 25.3948 39.4616 26.2052 36.3954 26.2052C33.3684 26.2052 30.9634 25.4189 29.1805 23.8465C27.4074 22.2645 26.5013 20.0988 26.4621 17.3495V0.361749H31.8108V17.1903C31.8108 18.8592 32.2124 20.0795 33.0157 20.8513C33.8288 21.6133 34.9554 21.9944 36.3954 21.9944C39.393 21.9944 40.9163 20.4413 40.9653 17.335V0.361749H46.314Z" fill="#333333"/>
<path d="M70.2055 4.61593H62.2707V25.8579H56.9366V4.61593H49.1046V0.361749H70.2055V4.61593Z" fill="#333333"/>
<path d="M94.5257 13.6886C94.5257 16.1967 94.0751 18.3962 93.1739 20.2869C92.2726 22.1777 90.9844 23.6343 89.3093 24.6569C87.6341 25.6891 85.7092 26.2052 83.5344 26.2052C81.3891 26.2052 79.4739 25.6987 77.789 24.6858C76.104 23.6729 74.7962 22.2259 73.8656 20.3448C72.9448 18.4541 72.4795 16.2787 72.4697 13.8188V12.56C72.4697 10.0518 72.9301 7.84273 73.8509 5.9327C74.7718 4.02266 76.0697 2.55636 77.7449 1.53382C79.42 0.511273 81.3352 0 83.4903 0C85.6553 0 87.5753 0.511273 89.2505 1.53382C90.9354 2.55636 92.2334 4.02266 93.1445 5.9327C94.0653 7.84273 94.5257 10.047 94.5257 12.5455V13.6886ZM89.1182 12.531C89.1182 9.85888 88.6333 7.82826 87.6635 6.43914C86.6937 5.05003 85.3075 4.35547 83.505 4.35547C81.7123 4.35547 80.3262 5.04038 79.3466 6.41021C78.3768 7.78003 77.8869 9.79136 77.8771 12.4442V13.6886C77.8771 16.2932 78.3621 18.3142 79.3319 19.7515C80.3115 21.1792 81.7123 21.8931 83.5344 21.8931C85.3271 21.8931 86.7035 21.2034 87.6635 19.8239C88.6235 18.4444 89.1085 16.4283 89.1182 13.7754V12.531Z" fill="#333333"/>
<path d="M98.2689 26.2052V0H106.692V10.7628L113.711 0H123.07L108.096 26.2052H98.2689Z" fill="#52D4F0"/>
<path d="M146 26.2052H137.577V16.3782L131.026 26.2052H124.007V16.3782L117.923 26.2052H108.096L123.071 0H131.026V9.82693L137.577 0H146V26.2052Z" fill="#007AD3"/>
</svg>
