<svg width="16" height="16" viewBox="0 0 16 16" fill="none" xmlns="http://www.w3.org/2000/svg">
<path d="M9.59996 13.8334H6.39996C3.47329 13.8334 2.16663 12.5267 2.16663 9.60008V6.40008C2.16663 3.47342 3.47329 2.16675 6.39996 2.16675H9.59996C12.5266 2.16675 13.8333 3.47342 13.8333 6.40008V9.60008C13.8333 12.5267 12.5266 13.8334 9.59996 13.8334ZM6.39996 3.16675C4.01329 3.16675 3.16663 4.01341 3.16663 6.40008V9.60008C3.16663 11.9867 4.01329 12.8334 6.39996 12.8334H9.59996C11.9866 12.8334 12.8333 11.9867 12.8333 9.60008V6.40008C12.8333 4.01341 11.9866 3.16675 9.59996 3.16675H6.39996Z" fill="#414755"/>
<path d="M8.99996 11.8334H6.99996C5.06663 11.8334 4.16663 10.9334 4.16663 9.00008V7.00008C4.16663 5.06675 5.06663 4.16675 6.99996 4.16675H8.99996C10.9333 4.16675 11.8333 5.06675 11.8333 7.00008V9.00008C11.8333 10.9334 10.9333 11.8334 8.99996 11.8334ZM6.99996 5.16675C5.61329 5.16675 5.16663 5.61341 5.16663 7.00008V9.00008C5.16663 10.3867 5.61329 10.8334 6.99996 10.8334H8.99996C10.3866 10.8334 10.8333 10.3867 10.8333 9.00008V7.00008C10.8333 5.61341 10.3866 5.16675 8.99996 5.16675H6.99996Z" fill="#414755"/>
<path d="M5.33997 3.16659C5.05997 3.16659 4.83997 2.93992 4.83997 2.66659V1.33325C4.83997 1.05992 5.06663 0.833252 5.33997 0.833252C5.6133 0.833252 5.83997 1.05992 5.83997 1.33325V2.66659C5.83997 2.93992 5.6133 3.16659 5.33997 3.16659Z" fill="#414755"/>
<path d="M8 3.16659C7.72667 3.16659 7.5 2.93992 7.5 2.66659V1.33325C7.5 1.05992 7.72667 0.833252 8 0.833252C8.27333 0.833252 8.5 1.05992 8.5 1.33325V2.66659C8.5 2.93992 8.27333 3.16659 8 3.16659Z" fill="#414755"/>
<path d="M10.6666 3.16659C10.3933 3.16659 10.1666 2.93992 10.1666 2.66659V1.33325C10.1666 1.05992 10.3933 0.833252 10.6666 0.833252C10.94 0.833252 11.1666 1.05992 11.1666 1.33325V2.66659C11.1666 2.93992 10.94 3.16659 10.6666 3.16659Z" fill="#414755"/>
<path d="M14.6667 5.83325H13.3334C13.06 5.83325 12.8334 5.60659 12.8334 5.33325C12.8334 5.05992 13.06 4.83325 13.3334 4.83325H14.6667C14.94 4.83325 15.1667 5.05992 15.1667 5.33325C15.1667 5.60659 14.9467 5.83325 14.6667 5.83325Z" fill="#414755"/>
<path d="M14.6667 8.5H13.3334C13.06 8.5 12.8334 8.27333 12.8334 8C12.8334 7.72667 13.06 7.5 13.3334 7.5H14.6667C14.94 7.5 15.1667 7.72667 15.1667 8C15.1667 8.27333 14.9467 8.5 14.6667 8.5Z" fill="#414755"/>
<path d="M14.6667 11.1667H13.3334C13.06 11.1667 12.8334 10.9401 12.8334 10.6667C12.8334 10.3934 13.06 10.1667 13.3334 10.1667H14.6667C14.94 10.1667 15.1667 10.3934 15.1667 10.6667C15.1667 10.9401 14.9467 11.1667 14.6667 11.1667Z" fill="#414755"/>
<path d="M10.6666 15.1666C10.3933 15.1666 10.1666 14.9399 10.1666 14.6666V13.3333C10.1666 13.0599 10.3933 12.8333 10.6666 12.8333C10.94 12.8333 11.1666 13.0599 11.1666 13.3333V14.6666C11.1666 14.9399 10.94 15.1666 10.6666 15.1666Z" fill="#414755"/>
<path d="M8.00671 15.1666C7.73338 15.1666 7.50671 14.9399 7.50671 14.6666V13.3333C7.50671 13.0599 7.73338 12.8333 8.00671 12.8333C8.28005 12.8333 8.50671 13.0599 8.50671 13.3333V14.6666C8.50671 14.9399 8.28005 15.1666 8.00671 15.1666Z" fill="#414755"/>
<path d="M5.33997 15.1666C5.06663 15.1666 4.83997 14.9399 4.83997 14.6666V13.3333C4.83997 13.0599 5.06663 12.8333 5.33997 12.8333C5.6133 12.8333 5.83997 13.0599 5.83997 13.3333V14.6666C5.83997 14.9399 5.6133 15.1666 5.33997 15.1666Z" fill="#414755"/>
<path d="M2.66671 5.83325H1.33337C1.06004 5.83325 0.833374 5.61325 0.833374 5.33325C0.833374 5.05325 1.06004 4.83325 1.33337 4.83325H2.66671C2.94004 4.83325 3.16671 5.05992 3.16671 5.33325C3.16671 5.60659 2.94671 5.83325 2.66671 5.83325Z" fill="#414755"/>
<path d="M2.66671 8.5H1.33337C1.06004 8.5 0.833374 8.27333 0.833374 8C0.833374 7.72667 1.06004 7.5 1.33337 7.5H2.66671C2.94004 7.5 3.16671 7.72667 3.16671 8C3.16671 8.27333 2.94671 8.5 2.66671 8.5Z" fill="#414755"/>
<path d="M2.66671 11.1667H1.33337C1.06004 11.1667 0.833374 10.9401 0.833374 10.6667C0.833374 10.3934 1.06004 10.1667 1.33337 10.1667H2.66671C2.94004 10.1667 3.16671 10.3934 3.16671 10.6667C3.16671 10.9401 2.94671 11.1667 2.66671 11.1667Z" fill="#414755"/>
</svg>
