<svg width="16" height="16" viewBox="0 0 16 16" fill="none" xmlns="http://www.w3.org/2000/svg">
<path d="M10.3334 15.1666H5.66671C3.19337 15.1666 1.83337 13.8066 1.83337 11.3333V4.66658C1.83337 2.19325 3.19337 0.833252 5.66671 0.833252H10.3334C12.7667 0.833252 14.1667 2.23325 14.1667 4.66658V5.33325C14.1667 5.97325 13.64 6.49992 13 6.49992C12.9067 6.49992 12.8334 6.57325 12.8334 6.66658V8.11325C12.8334 8.33325 12.92 8.54659 13.08 8.69992L13.6334 9.25325C13.98 9.59992 14.1734 10.0599 14.1734 10.5466V11.3333C14.1667 13.7666 12.7667 15.1666 10.3334 15.1666ZM5.66671 1.83325C3.76004 1.83325 2.83337 2.75992 2.83337 4.66658V11.3333C2.83337 13.2399 3.76004 14.1666 5.66671 14.1666H10.3334C12.2134 14.1666 13.1667 13.2133 13.1667 11.3333V10.5533C13.1667 10.3333 13.08 10.1199 12.92 9.96658L12.3667 9.41325C12.02 9.06658 11.8267 8.60659 11.8267 8.11992V6.66658C11.8267 6.02659 12.3534 5.49992 12.9934 5.49992C13.0867 5.49992 13.16 5.42659 13.16 5.33325V4.66658C13.16 2.78659 12.2067 1.83325 10.3267 1.83325H5.66671Z" fill="#414755"/>
<path d="M10.6733 15.1467C10.3999 15.1467 10.1733 14.9267 10.1733 14.6533L10.1533 12.66C10.1533 12.2 9.77328 11.8333 9.31995 11.8333H6.65328C6.43328 11.8333 6.21995 11.92 6.05995 12.08C5.90661 12.2333 5.81995 12.4467 5.81995 12.6667L5.82661 14.6467C5.82661 14.92 5.60661 15.1467 5.32661 15.1467C5.05328 15.1467 4.82661 14.9267 4.82661 14.6467L4.81995 12.6667C4.81995 12.1733 5.00661 11.7133 5.35328 11.3667C5.69995 11.02 6.15995 10.8267 6.65328 10.8267H9.32661C10.3333 10.8267 11.1533 11.6467 11.1599 12.6467L11.1799 14.6333C11.1799 14.92 10.9533 15.1467 10.6733 15.1467C10.6799 15.1467 10.6733 15.1467 10.6733 15.1467Z" fill="#414755"/>
<path d="M9.31335 5.68677H5.31335C5.04002 5.68677 4.81335 5.4601 4.81335 5.18677C4.81335 4.91343 5.04002 4.68677 5.31335 4.68677H9.31335C9.58669 4.68677 9.81335 4.91343 9.81335 5.18677C9.81335 5.4601 9.59336 5.68677 9.31335 5.68677Z" fill="#414755"/>
</svg>
