<svg width="32" height="32" viewBox="0 0 32 32" fill="none" xmlns="http://www.w3.org/2000/svg">
<rect x="0.5" y="0.5" width="31" height="31" rx="4.5" fill="white" stroke="#D4D4D8"/>
<path d="M16 26.75C10.07 26.75 5.25 21.93 5.25 16C5.25 10.07 10.07 5.25 16 5.25C21.93 5.25 26.75 10.07 26.75 16C26.75 21.93 21.93 26.75 16 26.75ZM16 6.75C10.9 6.75 6.75 10.9 6.75 16C6.75 21.1 10.9 25.25 16 25.25C21.1 25.25 25.25 21.1 25.25 16C25.25 10.9 21.1 6.75 16 6.75Z" fill="#A1A1AA"/>
<path d="M13 25.75H12C11.59 25.75 11.25 25.41 11.25 25C11.25 24.59 11.57 24.26 11.98 24.25C10.41 18.89 10.41 13.11 11.98 7.75C11.57 7.74 11.25 7.41 11.25 7C11.25 6.59 11.59 6.25 12 6.25H13C13.24 6.25 13.47 6.37 13.61 6.56C13.75 6.76 13.79 7.01 13.71 7.24C11.83 12.89 11.83 19.11 13.71 24.77C13.79 25 13.75 25.25 13.61 25.45C13.47 25.63 13.24 25.75 13 25.75Z" fill="#A1A1AA"/>
<path d="M19 25.7499C18.92 25.7499 18.84 25.7399 18.76 25.7099C18.37 25.5799 18.15 25.1499 18.29 24.7599C20.17 19.1099 20.17 12.8899 18.29 7.22994C18.16 6.83994 18.37 6.40994 18.76 6.27994C19.16 6.14994 19.58 6.35994 19.71 6.74994C21.7 12.7099 21.7 19.2699 19.71 25.2199C19.61 25.5499 19.31 25.7499 19 25.7499Z" fill="#A1A1AA"/>
<path d="M16 21.2C13.21 21.2 10.43 20.81 7.75 20.02C7.74 20.42 7.41 20.75 7 20.75C6.59 20.75 6.25 20.41 6.25 20V19C6.25 18.76 6.37 18.53 6.56 18.39C6.76 18.25 7.01 18.21 7.24 18.29C12.89 20.17 19.12 20.17 24.77 18.29C25 18.21 25.25 18.25 25.45 18.39C25.65 18.53 25.76 18.76 25.76 19V20C25.76 20.41 25.42 20.75 25.01 20.75C24.6 20.75 24.27 20.43 24.26 20.02C21.57 20.81 18.79 21.2 16 21.2Z" fill="#A1A1AA"/>
<path d="M25 13.7501C24.92 13.7501 24.84 13.7401 24.76 13.7101C19.11 11.8301 12.88 11.8301 7.23003 13.7101C6.83003 13.8401 6.41003 13.6301 6.28003 13.2401C6.16003 12.8401 6.37003 12.4201 6.76003 12.2901C12.72 10.3001 19.28 10.3001 25.23 12.2901C25.62 12.4201 25.84 12.8501 25.7 13.2401C25.61 13.5501 25.31 13.7501 25 13.7501Z" fill="#A1A1AA"/>
</svg>
