<svg width="24" height="24" viewBox="0 0 24 24" fill="none" xmlns="http://www.w3.org/2000/svg">
<path d="M15.8099 20.18C15.5499 20.18 15.2799 20.17 14.9899 20.14C14.4699 20.1 13.88 20 13.27 19.85L11.59 19.45C6.97995 18.36 5.46995 15.92 6.54995 11.32L7.52995 7.13001C7.74995 6.18001 8.00995 5.41001 8.32995 4.77002C10.0499 1.22002 13.3399 1.54001 15.6799 2.09001L17.3499 2.48001C19.6899 3.03001 21.1699 3.90001 21.9999 5.23002C22.8199 6.56002 22.95 8.27002 22.4 10.61L21.4199 14.79C20.5599 18.45 18.7699 20.18 15.8099 20.18ZM13.1199 3.25001C11.4499 3.25001 10.3899 3.94002 9.67995 5.42002C9.41995 5.96002 9.18995 6.63001 8.98995 7.47001L8.00995 11.66C7.11995 15.44 8.14995 17.09 11.93 17.99L13.6099 18.39C14.1499 18.52 14.6599 18.6 15.1199 18.64C17.8399 18.91 19.19 17.72 19.95 14.45L20.9299 10.27C21.3799 8.34002 21.3199 6.99001 20.7199 6.02001C20.1199 5.05001 18.9399 4.39002 16.9999 3.94002L15.3299 3.55001C14.4999 3.35001 13.7599 3.25001 13.1199 3.25001Z" fill="#414755"/>
<path d="M8.33005 22.2499C5.76005 22.2499 4.12005 20.7099 3.07005 17.4599L1.79005 13.5099C0.370052 9.10993 1.64005 6.62993 6.02005 5.20993L7.60005 4.69993C8.12005 4.53993 8.51005 4.42993 8.86005 4.36993C9.15005 4.30993 9.43005 4.41993 9.60005 4.64993C9.77005 4.87993 9.80005 5.17993 9.68005 5.43993C9.42005 5.96993 9.19005 6.63993 9.00005 7.47993L8.02005 11.6699C7.13005 15.4499 8.16005 17.0999 11.9401 17.9999L13.6201 18.3999C14.1601 18.5299 14.6701 18.6099 15.1301 18.6499C15.4501 18.6799 15.7101 18.8999 15.8001 19.2099C15.8801 19.5199 15.7601 19.8399 15.5001 20.0199C14.8401 20.4699 14.0101 20.8499 12.9601 21.1899L11.3801 21.7099C10.2301 22.0699 9.23005 22.2499 8.33005 22.2499ZM7.78005 6.21993L6.49005 6.63993C2.92005 7.78993 2.07005 9.46993 3.22005 13.0499L4.50005 16.9999C5.66005 20.5699 7.34005 21.4299 10.9101 20.2799L12.4901 19.7599C12.5501 19.7399 12.6001 19.7199 12.6601 19.6999L11.6001 19.4499C6.99005 18.3599 5.48005 15.9199 6.56005 11.3199L7.54005 7.12993C7.61005 6.80993 7.69005 6.49993 7.78005 6.21993Z" fill="#414755"/>
<path d="M17.49 10.51C17.43 10.51 17.37 10.5 17.3 10.49L12.45 9.26002C12.05 9.16002 11.81 8.75002 11.91 8.35002C12.01 7.95002 12.42 7.71002 12.82 7.81002L17.67 9.04002C18.07 9.14002 18.31 9.55002 18.21 9.95002C18.13 10.28 17.82 10.51 17.49 10.51Z" fill="#414755"/>
<path d="M14.56 13.8899C14.5 13.8899 14.44 13.8799 14.37 13.8699L11.46 13.1299C11.06 13.0299 10.82 12.6199 10.92 12.2199C11.02 11.8199 11.43 11.5799 11.83 11.6799L14.74 12.4199C15.14 12.5199 15.38 12.9299 15.28 13.3299C15.2 13.6699 14.9 13.8899 14.56 13.8899Z" fill="#414755"/>
</svg>
