<svg width="30" height="30" viewBox="0 0 30 30" fill="none" xmlns="http://www.w3.org/2000/svg">
<rect width="30" height="30" rx="7" fill="#22C55E"/>
<path d="M21.3346 21.3345C17.8403 24.8288 12.1598 24.8288 8.66555 21.3345C5.17127 17.8402 5.17127 12.1598 8.66555 8.6655C8.90715 8.42391 9.30784 8.42391 9.54944 8.6655C9.79103 8.9071 9.79103 9.30779 9.54944 9.54938C6.54423 12.5546 6.54423 17.4454 9.54944 20.4506C12.5546 23.4558 17.4455 23.4558 20.4507 20.4506C23.4559 17.4454 23.4559 12.5546 20.4507 9.54938C20.2091 9.30779 20.2091 8.9071 20.4507 8.6655C20.6923 8.42391 21.093 8.42391 21.3346 8.6655C24.8288 12.1598 24.8288 17.8402 21.3346 21.3345Z" fill="white" stroke="white"/>
<path d="M15.442 13.4299C15.33 13.5419 15.1768 13.6126 15 13.6126C14.6583 13.6126 14.3754 13.3298 14.3754 12.988L14.3754 6.65752C14.3754 6.31576 14.6583 6.03291 15 6.03291C15.3418 6.03291 15.6246 6.31576 15.6246 6.65752L15.6246 12.988C15.6246 13.1648 15.5539 13.318 15.442 13.4299Z" fill="white" stroke="white"/>
</svg>
