<svg width="17" height="16" viewBox="0 0 17 16" fill="none" xmlns="http://www.w3.org/2000/svg">
<path d="M5.50355 10.4999C5.31688 10.4999 5.14355 10.3999 5.05688 10.2266C4.93022 9.97993 5.03022 9.67993 5.28355 9.55327C5.86355 9.2666 6.35688 8.8266 6.71022 8.29327C6.83022 8.11327 6.83022 7.8866 6.71022 7.7066C6.35022 7.17327 5.85688 6.73327 5.28355 6.4466C5.03022 6.3266 4.93022 6.0266 5.05688 5.77327C5.17688 5.5266 5.47688 5.4266 5.72355 5.55327C6.45688 5.91993 7.08355 6.47327 7.53688 7.15327C7.87688 7.6666 7.87688 8.33327 7.53688 8.8466C7.08355 9.5266 6.45688 10.0799 5.72355 10.4466C5.65688 10.4799 5.57688 10.4999 5.50355 10.4999Z" fill="#414755"/>
<path d="M12.2434 10.5H9.57678C9.30345 10.5 9.07678 10.2733 9.07678 10C9.07678 9.72667 9.30345 9.5 9.57678 9.5H12.2434C12.5168 9.5 12.7434 9.72667 12.7434 10C12.7434 10.2733 12.5168 10.5 12.2434 10.5Z" fill="#414755"/>
<path d="M10.9102 15.1666H6.9102C3.2902 15.1666 1.74353 13.6199 1.74353 9.99992V5.99992C1.74353 2.37992 3.2902 0.833252 6.9102 0.833252H10.9102C14.5302 0.833252 16.0769 2.37992 16.0769 5.99992V9.99992C16.0769 13.6199 14.5302 15.1666 10.9102 15.1666ZM6.9102 1.83325C3.83686 1.83325 2.74353 2.92658 2.74353 5.99992V9.99992C2.74353 13.0733 3.83686 14.1666 6.9102 14.1666H10.9102C13.9835 14.1666 15.0769 13.0733 15.0769 9.99992V5.99992C15.0769 2.92658 13.9835 1.83325 10.9102 1.83325H6.9102Z" fill="#414755"/>
</svg>
