<svg width="30" height="30" viewBox="0 0 30 30" fill="none" xmlns="http://www.w3.org/2000/svg">
<rect width="30" height="30" rx="7" fill="#63B3E0"/>
<path d="M15.0018 23.941C12.6757 23.941 10.3496 23.0604 8.57183 21.2826C8.10661 20.8174 7.69123 20.3023 7.30908 19.6876C6.94356 19.106 7.1263 18.3418 7.70782 17.9763C8.28934 17.6108 9.05368 17.7935 9.4192 18.375C9.70166 18.8402 10.0007 19.2058 10.333 19.5381C12.9083 22.1134 17.0952 22.1134 19.6705 19.5381C20.6674 18.5412 21.2988 17.2452 21.5148 15.7997C21.6145 15.1185 22.2458 14.6201 22.927 14.7364C23.6082 14.8361 24.0735 15.4675 23.9904 16.1487C23.708 18.1259 22.8274 19.9036 21.4483 21.2993C19.6539 23.0604 17.3279 23.941 15.0018 23.941Z" fill="white"/>
<path d="M7.25918 14.9854C7.19272 14.9854 7.1429 14.9854 7.07644 14.9688C6.39523 14.8691 5.91338 14.2377 6.01307 13.5565C6.29552 11.5793 7.17611 9.80158 8.55514 8.40593C12.0941 4.86697 17.8594 4.86697 21.415 8.40593C21.8802 8.87115 22.2956 9.38626 22.6778 10.0176C23.0433 10.5991 22.8605 11.3634 22.279 11.7289C21.6975 12.0944 20.9332 11.9117 20.5677 11.3302C20.2852 10.8816 19.9861 10.4994 19.6539 10.1671C17.0785 7.5918 12.8916 7.5918 10.3163 10.1671C9.31942 11.164 8.68808 12.4599 8.47209 13.9054C8.40563 14.5368 7.87393 14.9854 7.25918 14.9854Z" fill="white"/>
<path d="M8.05739 24.705C7.37618 24.705 6.81128 24.1401 6.81128 23.4589V19.0227C6.81128 18.3415 7.37618 17.7766 8.05739 17.7766H12.4935C13.1747 17.7766 13.7396 18.3415 13.7396 19.0227C13.7396 19.7039 13.1747 20.2688 12.4935 20.2688H9.30351V23.4589C9.30351 24.1401 8.75522 24.705 8.05739 24.705Z" fill="white"/>
<path d="M21.9464 11.9284H17.5103C16.8291 11.9284 16.2642 11.3635 16.2642 10.6822C16.2642 10.001 16.8291 9.43614 17.5103 9.43614H20.7003V6.24611C20.7003 5.5649 21.2652 5 21.9464 5C22.6276 5 23.1925 5.5649 23.1925 6.24611V10.6822C23.1925 11.3801 22.6276 11.9284 21.9464 11.9284Z" fill="white"/>
</svg>
