<svg width="30" height="30" viewBox="0 0 30 30" fill="none" xmlns="http://www.w3.org/2000/svg">
<rect width="30" height="30" rx="7" fill="#F0A028"/>
<g clip-path="url(#clip0_526_2124)">
<path d="M15.1747 5.99986C15.5537 6.11572 15.8506 6.32489 15.9552 6.72844C15.9897 6.86226 15.9957 7.00593 15.996 7.14538C15.9982 10.202 15.9978 13.2585 15.9978 16.3151V16.5757C16.0795 16.4979 16.1264 16.4553 16.1711 16.4105C16.8755 15.707 17.5782 15.0016 18.284 14.2995C18.5605 14.0244 18.8954 13.936 19.2691 14.0389C19.6449 14.1424 19.883 14.397 19.97 14.7755C20.0574 15.1552 19.9362 15.4767 19.6625 15.7492C18.9197 16.4891 18.1794 17.231 17.438 17.9723C16.8871 18.523 16.3373 19.0745 15.7854 19.6242C15.2828 20.1246 14.7144 20.1242 14.2142 19.6242C12.9258 18.3367 11.6375 17.0497 10.3505 15.7608C9.92466 15.3344 9.88451 14.7548 10.2459 14.3428C10.6372 13.8966 11.2895 13.8783 11.7262 14.3107C12.4296 15.0073 13.1269 15.7094 13.8271 16.4088C13.8719 16.4535 13.9187 16.4961 14.0008 16.5743C14.0008 16.4598 14.0008 16.3873 14.0008 16.3148C14.0008 13.2466 14.0008 10.178 14.0008 7.10981C14.0008 6.5161 14.2322 6.20094 14.7947 6.01923C14.8052 6.01571 14.8137 6.0062 14.8232 5.99951C14.9405 5.99951 15.0574 5.99951 15.1747 5.99951V5.99986Z" fill="white"/>
<path d="M6 18.7928C6.01867 18.7519 6.04015 18.7118 6.05565 18.6695C6.22612 18.2054 6.67166 17.9364 7.14891 18.0107C7.63636 18.0868 7.98752 18.4815 7.99949 18.9801C8.00724 19.302 8.0002 19.6242 8.00196 19.9464C8.00794 21.124 8.8624 21.9902 10.0409 21.992C13.3439 21.9966 16.6469 21.9962 19.9503 21.992C21.1387 21.9906 21.9917 21.1257 21.9966 19.9362C21.998 19.626 21.9935 19.3154 21.998 19.0051C22.0065 18.4378 22.4489 17.9934 22.9994 17.9941C23.5513 17.9948 23.9986 18.4392 23.9958 19.0072C23.993 19.6379 24.038 20.27 23.8968 20.8961C23.502 22.6498 21.904 23.9809 20.1077 23.9886C16.705 24.0034 13.3024 24.0041 9.89966 23.9886C7.94067 23.9798 6.26557 22.4431 6.03205 20.4908C6.02747 20.4514 6.01092 20.413 6 20.3743C6 19.8471 6 19.32 6 18.7928H6Z" fill="white"/>
</g>
<defs>
<clipPath id="clip0_526_2124">
<rect width="18" height="18" fill="white" transform="translate(6 6)"/>
</clipPath>
</defs>
</svg>
