<svg width="17" height="16" viewBox="0 0 17 16" fill="none" xmlns="http://www.w3.org/2000/svg">
<path d="M10.91 15.1666H6.90995C3.28995 15.1666 1.74329 13.6199 1.74329 9.99992V5.99992C1.74329 2.37992 3.28995 0.833252 6.90995 0.833252H10.91C14.53 0.833252 16.0766 2.37992 16.0766 5.99992V9.99992C16.0766 13.6199 14.53 15.1666 10.91 15.1666ZM6.90995 1.83325C3.83662 1.83325 2.74329 2.92659 2.74329 5.99992V9.99992C2.74329 13.0733 3.83662 14.1666 6.90995 14.1666H10.91C13.9833 14.1666 15.0766 13.0733 15.0766 9.99992V5.99992C15.0766 2.92659 13.9833 1.83325 10.91 1.83325H6.90995Z" fill="#414755"/>
<path d="M10.9098 6.84013C10.7832 6.84013 10.6565 6.79346 10.5565 6.69346L8.90983 5.0468L7.26316 6.69346C7.06983 6.8868 6.74983 6.8868 6.5565 6.69346C6.36317 6.50013 6.36317 6.18013 6.5565 5.9868L8.5565 3.9868C8.74983 3.79346 9.06983 3.79346 9.26316 3.9868L11.2632 5.9868C11.4565 6.18013 11.4565 6.50013 11.2632 6.69346C11.1632 6.79346 11.0365 6.84013 10.9098 6.84013Z" fill="#414755"/>
<path d="M8.90991 10.1734C8.63658 10.1734 8.40991 9.94675 8.40991 9.67342V4.34009C8.40991 4.06675 8.63658 3.84009 8.90991 3.84009C9.18325 3.84009 9.40991 4.06675 9.40991 4.34009V9.67342C9.40991 9.95342 9.18325 10.1734 8.90991 10.1734Z" fill="#414755"/>
<path d="M8.90988 12.1534C7.50321 12.1534 6.08988 11.9267 4.74988 11.48C4.48988 11.3934 4.34988 11.1067 4.43654 10.8467C4.52321 10.5867 4.80988 10.44 5.06988 10.5334C7.54988 11.36 10.2765 11.36 12.7565 10.5334C13.0165 10.4467 13.3032 10.5867 13.3899 10.8467C13.4765 11.1067 13.3365 11.3934 13.0765 11.48C11.7299 11.9334 10.3165 12.1534 8.90988 12.1534Z" fill="#414755"/>
</svg>
