<svg id="Layer_1" data-name="Layer 1" xmlns="http://www.w3.org/2000/svg" xmlns:xlink="http://www.w3.org/1999/xlink" viewBox="0 0 1500 1000"><defs><style>.cls-1{fill:none;}.cls-2{clip-path:url(#clip-path);}.cls-3{fill:#1ca33f;}.cls-4{fill:#fff;}.cls-5{fill:#db1422;}</style><clipPath id="clip-path"><rect class="cls-1" width="1500" height="1000"/></clipPath></defs><title>Flag-of-Iran</title><g class="cls-2"><rect class="cls-3" width="1500" height="1000"/><rect class="cls-4" y="332.38" width="1500" height="335.24"/><rect class="cls-5" y="667.62" width="1500" height="332.38"/><path class="cls-4" d="M814.29,317.85H779.05V302.21H761v5.59h13.34v10.05h-22v-25.7h26.67V276.51h8.57V307.8h4.76V276.51H801V307.8h4.75V276.51h8.58Zm-66.67,0H712.38V302.21H694.29v15.64h-8.58v-25.7H721V307.8h18.1v-5.59H725.71V292.15h21.91Zm-40,0h-8.57V307.8h8.58Zm66.67-31.28H685.71V276.51h88.58Z"/><path class="cls-4" d="M814.29,335.18H752.38V325.12h61.91Zm-66.67,0H685.71V325.12h61.91Z"/><path class="cls-4" d="M814.29,723.5H779.05V707.85H761v5.59h13.34V723.5h-22V697.79h26.67V682.15h8.57v31.29h4.76V682.15H801v31.29h4.75V682.15h8.58Zm-66.67,0H712.38V707.85H694.29V723.5h-8.58V697.79H721v15.65h18.1v-5.59H725.71V697.79h21.91Zm-40,0h-8.57V713.44h8.58Zm66.67-31.29H685.71V682.15h88.58Z"/><path class="cls-4" d="M814.29,674.88H752.38V664.82h61.91Zm-66.67,0H685.71V664.82h61.91Z"/><path class="cls-4" d="M947.63,317.85H912.38V302.21H894.29v5.59h13.33v10.05h-21.9v-25.7h26.66V276.51H921V307.8h4.75V276.51h8.58V307.8h4.76V276.51h8.58Zm-66.68,0H845.71V302.21H827.62v15.64h-8.57v-25.7h35.23V307.8h18.1v-5.59H859.05V292.15h22Zm-40,0h-8.57V307.8H841Zm66.66-31.28H819V276.51h88.58Z"/><path class="cls-4" d="M947.63,335.18H885.72V325.12h61.91Zm-66.68,0H819V325.12h62Z"/><path class="cls-4" d="M947.63,723.5H912.38V707.85H894.29v5.59h13.33V723.5h-21.9V697.79h26.66V682.15H921v31.29h4.75V682.15h8.58v31.29h4.76V682.15h8.58Zm-66.68,0H845.71V707.85H827.62V723.5h-8.57V697.79h35.23v15.65h18.1v-5.59H859.05V697.79h22Zm-40,0h-8.57V713.44H841Zm66.66-31.29H819V682.15h88.58Z"/><path class="cls-4" d="M947.63,674.88H885.72V664.82h61.91Zm-66.68,0H819V664.82h62Z"/><path class="cls-4" d="M547.62,317.85H512.38V302.21h-18.1v5.59h13.34v10.05H485.71v-25.7h26.67V276.51H521V307.8h4.77V276.51h8.56V307.8h4.77V276.51h8.57Zm-66.67,0H445.71V302.21H427.62v15.64h-8.57v-25.7h35.24V307.8h18.09v-5.59H459.05V292.15H481Zm-40,0h-8.58V307.8H441Zm66.66-31.28H419.05V276.51h88.57Z"/><path class="cls-4" d="M547.62,335.18H485.71V325.12h61.91Zm-66.67,0h-61.9V325.12H481Z"/><path class="cls-4" d="M547.62,723.5H512.38V707.85h-18.1v5.59h13.34V723.5H485.71V697.79h26.67V682.15H521v31.29h4.77V682.15h8.56v31.29h4.77V682.15h8.57Zm-66.67,0H445.71V707.85H427.62V723.5h-8.57V697.79h35.24v15.65h18.09v-5.59H459.05V697.79H481Zm-40,0h-8.58V713.44H441Zm66.66-31.29H419.05V682.15h88.57Z"/><path class="cls-4" d="M547.62,674.88H485.71V664.82h61.91Zm-66.67,0h-61.9V664.82H481Z"/><path class="cls-4" d="M681,317.85H645.72V302.21h-18.1v5.59H641v10.05H619.1v-25.7h26.67V276.51h8.57V307.8h4.76V276.51h8.57V307.8h4.76V276.51H681Zm-66.67,0H579V302.21H561v15.64h-8.57v-25.7h35.24V307.8h18.09v-5.59H592.38V292.15h21.9Zm-40,0h-8.58V307.8h8.59ZM641,286.57H552.38V276.51H641Z"/><path class="cls-4" d="M681,335.18H619V325.12h62Zm-66.67,0h-62V325.12h61.91Z"/><path class="cls-4" d="M681,723.5H645.72V707.85h-18.1v5.59H641V723.5H619.1V697.79h26.67V682.15h8.57v31.29h4.76V682.15h8.57v31.29h4.76V682.15H681Zm-66.67,0H579V707.85H561V723.5h-8.57V697.79h35.24v15.65h18.09v-5.59H592.38V697.79h21.9Zm-40,0h-8.58V713.44h8.59ZM641,692.21H552.38V682.15H641Z"/><path class="cls-4" d="M681,674.88H619V664.82h62Zm-66.67,0h-62V664.82h61.91Z"/><path class="cls-4" d="M1347.62,317.85h-35.24V302.21h-18.09v5.59h13.33v10.05h-21.91v-25.7h26.67V276.51H1321V307.8h4.77V276.51h8.57V307.8h4.76V276.51h8.57Zm-66.66,0h-35.24V302.21h-18.1v15.64h-8.57v-25.7h35.24V307.8h18.09v-5.59h-13.33V292.15h22Zm-40,0h-8.56V307.8h8.6Zm66.67-31.28h-88.57V276.51h88.57Z"/><path class="cls-4" d="M1347.62,335.18h-61.91V325.12h61.91Zm-66.66,0h-61.91V325.12h62Z"/><path class="cls-4" d="M1347.62,723.5h-35.24V707.85h-18.09v5.59h13.33V723.5h-21.91V697.79h26.67V682.15H1321v31.29h4.77V682.15h8.57v31.29h4.76V682.15h8.57Zm-66.66,0h-35.24V707.85h-18.1V723.5h-8.57V697.79h35.24v15.65h18.09v-5.59h-13.33V697.79h22Zm-40,0h-8.56V713.44h8.6Zm66.67-31.29h-88.57V682.15h88.57Z"/><path class="cls-4" d="M1347.62,674.88h-61.91V664.82h61.91Zm-66.66,0h-61.91V664.82h62Z"/><path class="cls-4" d="M1481,317.85h-35.23V302.21h-18.1v5.59H1441v10.05h-21.9v-25.7h26.67V276.51h8.56V307.8h4.77V276.51h8.56V307.8h4.78V276.51H1481Zm-66.67,0H1379.1V302.21H1361v15.64h-8.57v-25.7h35.23V307.8h18.09v-5.59h-13.33V292.15h21.9Zm-40,0h-8.57V307.8h8.57ZM1441,286.57h-88.57V276.51H1441Z"/><path class="cls-4" d="M1481,335.18h-61.9V325.12H1481Zm-66.67,0h-61.9V325.12h61.9Z"/><path class="cls-4" d="M1481,723.5h-35.23V707.85h-18.1v5.59H1441V723.5h-21.9V697.79h26.67V682.15h8.56v31.29h4.77V682.15h8.56v31.29h4.78V682.15H1481Zm-66.67,0H1379.1V707.85H1361V723.5h-8.57V697.79h35.23v15.65h18.09v-5.59h-13.33V697.79h21.9Zm-40,0h-8.57V713.44h8.57ZM1441,692.21h-88.57V682.15H1441Z"/><path class="cls-4" d="M1481,674.88h-61.9V664.82H1481Zm-66.67,0h-61.9V664.82h61.9Z"/><path class="cls-4" d="M1081,317.85h-35.24V302.21h-18.09v5.59H1041v10.05h-21.91v-25.7h26.66V276.51h8.58V307.8h4.76V276.51h8.57V307.8h4.76V276.51H1081Zm-66.66,0H979.05V302.21H961v15.64h-8.57v-25.7h35.24V307.8h18.1v-5.59H992.38V292.15h21.91Zm-40,0h-8.56V307.8h8.57ZM1041,286.57H952.38V276.51H1041Z"/><path class="cls-4" d="M1081,335.18h-61.9V325.12H1081Zm-66.66,0h-62V325.12h61.91Z"/><path class="cls-4" d="M1081,723.5h-35.24V707.85h-18.09v5.59H1041V723.5h-21.91V697.79h26.66V682.15h8.58v31.29h4.76V682.15h8.57v31.29h4.76V682.15H1081Zm-66.66,0H979.05V707.85H961V723.5h-8.57V697.79h35.24v15.65h18.1v-5.59H992.38V697.79h21.91Zm-40,0h-8.56V713.44h8.57ZM1041,692.21H952.38V682.15H1041Z"/><path class="cls-4" d="M1081,674.88h-61.9V664.82H1081Zm-66.66,0h-62V664.82h61.91Z"/><path class="cls-4" d="M1214.29,317.85h-35.24V302.21h-18v5.59h13.33v10.05h-21.91v-25.7h26.67V276.51h8.58V307.8h4.75V276.51H1201V307.8h4.77V276.51h8.57Zm-66.67,0h-35.23V302.21h-18.11v15.64h-8.56v-25.7H1121V307.8h18.1v-5.59h-13.33V292.15h21.9Zm-40,0h-8.56V307.8h8.57Zm66.67-31.28h-88.58V276.51h88.58Z"/><path class="cls-4" d="M1214.29,335.18h-61.91V325.12h61.91Zm-66.67,0h-61.91V325.12h61.91Z"/><path class="cls-4" d="M1214.29,723.5h-35.24V707.85h-18v5.59h13.33V723.5h-21.91V697.79h26.67V682.15h8.58v31.29h4.75V682.15H1201v31.29h4.77V682.15h8.57Zm-66.67,0h-35.23V707.85h-18.11V723.5h-8.56V697.79H1121v15.65h18.1v-5.59h-13.33V697.79h21.9Zm-40,0h-8.56V713.44h8.57Zm66.67-31.29h-88.58V682.15h88.58Z"/><path class="cls-4" d="M1214.29,674.88h-61.91V664.82h61.91Zm-66.67,0h-61.91V664.82h61.91Z"/><path class="cls-4" d="M414.28,317.85H379.05V302.21H361v5.59h13.33v10.05h-21.9v-25.7H379.1V276.51h8.56V307.8h4.78V276.51H401V307.8h4.77V276.51h8.56Zm-66.66,0H312.38V302.21h-18.1v15.64h-8.56v-25.7H321V307.8h18.1v-5.59H325.71V292.15h21.91Zm-40,0H299V307.8h8.58Zm66.65-31.28H285.72V276.51h88.56Z"/><path class="cls-4" d="M414.28,335.18h-61.9V325.12h61.9Zm-66.66,0h-61.9V325.12h61.9Z"/><path class="cls-4" d="M414.28,723.5H379.05V707.85H361v5.59h13.33V723.5h-21.9V697.79H379.1V682.15h8.56v31.29h4.78V682.15H401v31.29h4.77V682.15h8.56Zm-66.66,0H312.38V707.85h-18.1V723.5h-8.56V697.79H321v15.65h18.1v-5.59H325.71V697.79h21.91Zm-40,0H299V713.44h8.58Zm66.65-31.29H285.72V682.15h88.56Z"/><path class="cls-4" d="M414.28,674.88h-61.9V664.82h61.9Zm-66.66,0h-61.9V664.82h61.9Z"/><path class="cls-4" d="M147.62,317.85H112.38V302.21H94.29v5.59h13.33v10.05H85.71v-25.7h26.67V276.51H121V307.8h4.76V276.51h8.57V307.8h4.77V276.51h8.57Zm-66.66,0H45.72V302.21H27.62v15.64H19.05v-25.7H54.29V307.8H72.38v-5.59H59.05V292.15H81Zm-40,0H32.39V307.8H41Zm66.66-31.28H19V276.51h88.58Z"/><path class="cls-4" d="M147.62,335.18H85.71V325.12h61.91Zm-66.66,0H19.05V325.12H81Z"/><path class="cls-4" d="M147.62,723.5H112.38V707.85H94.29v5.59h13.33V723.5H85.71V697.79h26.67V682.15H121v31.29h4.76V682.15h8.57v31.29h4.77V682.15h8.57ZM81,723.5H45.72V707.85H27.62V723.5H19.05V697.79H54.29v15.65H72.38v-5.59H59.05V697.79H81Zm-40,0H32.39V713.44H41Zm66.66-31.29H19V682.15h88.58Z"/><path class="cls-4" d="M147.62,674.88H85.71V664.82h61.91Zm-66.66,0H19.05V664.82H81Z"/><path class="cls-4" d="M281,317.85H245.72V302.21H227.63v5.59H241v10.05H219.1v-25.7h26.67V276.51h8.56V307.8h4.77V276.51h8.57V307.8h4.76V276.51H281Zm-66.66,0H179.05V302.21H161v15.64h-8.57v-25.7h35.24V307.8h18.09v-5.59H192.38V292.15h21.91Zm-40,0h-8.57V307.8h8.57ZM241,286.57H152.38V276.51H241Z"/><path class="cls-4" d="M281,335.18H219.1V325.12H281Zm-66.66,0h-62V325.12h61.91Z"/><path class="cls-4" d="M281,723.5H245.72V707.85H227.63v5.59H241V723.5H219.1V697.79h26.67V682.15h8.56v31.29h4.77V682.15h8.57v31.29h4.76V682.15H281Zm-66.66,0H179.05V707.85H161V723.5h-8.57V697.79h35.24v15.65h18.09v-5.59H192.38V697.79h21.91Zm-40,0h-8.57V713.44h8.57ZM241,692.21H152.38V682.15H241Z"/><path class="cls-4" d="M281,674.88H219.1V664.82H281Zm-66.66,0h-62V664.82h61.91Z"/><path class="cls-5" d="M816.44,380.85s118,92.3,31.27,224.93c81.71-49.92,88.76-187.22-31.27-224.93"/><path class="cls-5" d="M750,367.74c-18.79,21.19-51.06.13-40-22.95,19.42,34.81,40,6.69,40,6.69s20.55,28.12,40-6.69c11.09,23.08-21.18,44.14-40,22.95"/><path class="cls-5" d="M750,655.21l-13.49-17.64s-31.78,10.58-73.63-4.05c34.29,0,53.45-6,60.52-9.58,0,0-77.67-41.86-76.15-127.09,4.54-86.23,50.43-112.47,50.43-112.47S616,503.4,736,602.89l-5.29-123.07V389.43c6.81-1.65,19.29-16,19.29-16s12.48,14.36,19.29,16v90.39L764,602.89c120-99.49,38.31-218.51,38.31-218.51s45.9,26.22,50.44,112.46c1.51,85.24-76.15,127.09-76.15,127.09,7,3.53,26.22,9.59,60.52,9.59-41.87,14.62-73.64,4-73.64,4L750,655.2Z"/><path class="cls-5" d="M683.56,380.85s-118,92.3-31.27,224.93c-81.71-49.92-88.76-187.22,31.27-224.93"/></g></svg>